<mxfile host="app.diagrams.net" modified="2022-05-18T04:20:42.034Z" agent="5.0 (Windows NT 10.0; Win64; x64) AppleWebKit/537.36 (KHTML, like Gecko) Chrome/101.0.4951.54 Safari/537.36" etag="O0g9VoDHyGqXQtqVrQKf" version="18.0.6" type="github">
  <diagram id="C5RBs43oDa-KdzZeNtuy" name="Page-1">
    <mxGraphModel dx="841" dy="727" grid="1" gridSize="10" guides="1" tooltips="1" connect="1" arrows="1" fold="1" page="1" pageScale="1" pageWidth="827" pageHeight="1169" math="0" shadow="0">
      <root>
        <mxCell id="WIyWlLk6GJQsqaUBKTNV-0" />
        <mxCell id="WIyWlLk6GJQsqaUBKTNV-1" parent="WIyWlLk6GJQsqaUBKTNV-0" />
        <mxCell id="0eYCjOLJQi8AJZjNb86l-2" style="edgeStyle=orthogonalEdgeStyle;rounded=0;orthogonalLoop=1;jettySize=auto;html=1;exitX=0.5;exitY=1;exitDx=0;exitDy=0;entryX=0.5;entryY=0;entryDx=0;entryDy=0;" edge="1" parent="WIyWlLk6GJQsqaUBKTNV-1" source="WIyWlLk6GJQsqaUBKTNV-3" target="WIyWlLk6GJQsqaUBKTNV-6">
          <mxGeometry relative="1" as="geometry" />
        </mxCell>
        <mxCell id="WIyWlLk6GJQsqaUBKTNV-3" value="매인화면" style="rounded=1;whiteSpace=wrap;html=1;fontSize=12;glass=0;strokeWidth=1;shadow=0;" parent="WIyWlLk6GJQsqaUBKTNV-1" vertex="1">
          <mxGeometry x="160" y="80" width="120" height="40" as="geometry" />
        </mxCell>
        <mxCell id="0eYCjOLJQi8AJZjNb86l-1" style="edgeStyle=orthogonalEdgeStyle;rounded=0;orthogonalLoop=1;jettySize=auto;html=1;exitX=0.5;exitY=1;exitDx=0;exitDy=0;entryX=0.5;entryY=0;entryDx=0;entryDy=0;" edge="1" parent="WIyWlLk6GJQsqaUBKTNV-1" source="WIyWlLk6GJQsqaUBKTNV-6" target="WIyWlLk6GJQsqaUBKTNV-10">
          <mxGeometry relative="1" as="geometry" />
        </mxCell>
        <mxCell id="0eYCjOLJQi8AJZjNb86l-14" style="edgeStyle=orthogonalEdgeStyle;rounded=0;orthogonalLoop=1;jettySize=auto;html=1;exitX=1;exitY=0.5;exitDx=0;exitDy=0;entryX=0;entryY=0.5;entryDx=0;entryDy=0;" edge="1" parent="WIyWlLk6GJQsqaUBKTNV-1" source="WIyWlLk6GJQsqaUBKTNV-6" target="0eYCjOLJQi8AJZjNb86l-8">
          <mxGeometry relative="1" as="geometry" />
        </mxCell>
        <mxCell id="0eYCjOLJQi8AJZjNb86l-15" style="edgeStyle=orthogonalEdgeStyle;rounded=0;orthogonalLoop=1;jettySize=auto;html=1;exitX=1;exitY=0.5;exitDx=0;exitDy=0;entryX=0;entryY=0.5;entryDx=0;entryDy=0;" edge="1" parent="WIyWlLk6GJQsqaUBKTNV-1" source="WIyWlLk6GJQsqaUBKTNV-6" target="0eYCjOLJQi8AJZjNb86l-10">
          <mxGeometry relative="1" as="geometry" />
        </mxCell>
        <mxCell id="WIyWlLk6GJQsqaUBKTNV-6" value="동물 보유 현황" style="rhombus;whiteSpace=wrap;html=1;shadow=0;fontFamily=Helvetica;fontSize=12;align=center;strokeWidth=1;spacing=6;spacingTop=-4;" parent="WIyWlLk6GJQsqaUBKTNV-1" vertex="1">
          <mxGeometry x="170" y="160" width="100" height="80" as="geometry" />
        </mxCell>
        <mxCell id="0eYCjOLJQi8AJZjNb86l-0" style="edgeStyle=orthogonalEdgeStyle;rounded=0;orthogonalLoop=1;jettySize=auto;html=1;exitX=0.5;exitY=1;exitDx=0;exitDy=0;" edge="1" parent="WIyWlLk6GJQsqaUBKTNV-1" source="WIyWlLk6GJQsqaUBKTNV-10" target="0eYCjOLJQi8AJZjNb86l-3">
          <mxGeometry relative="1" as="geometry">
            <mxPoint x="220" y="420" as="targetPoint" />
          </mxGeometry>
        </mxCell>
        <mxCell id="0eYCjOLJQi8AJZjNb86l-26" style="edgeStyle=orthogonalEdgeStyle;rounded=0;orthogonalLoop=1;jettySize=auto;html=1;exitX=1;exitY=0.5;exitDx=0;exitDy=0;entryX=0;entryY=0.5;entryDx=0;entryDy=0;" edge="1" parent="WIyWlLk6GJQsqaUBKTNV-1" source="WIyWlLk6GJQsqaUBKTNV-10" target="0eYCjOLJQi8AJZjNb86l-22">
          <mxGeometry relative="1" as="geometry" />
        </mxCell>
        <mxCell id="WIyWlLk6GJQsqaUBKTNV-10" value="동물 세부 정보" style="rhombus;whiteSpace=wrap;html=1;shadow=0;fontFamily=Helvetica;fontSize=12;align=center;strokeWidth=1;spacing=6;spacingTop=-4;" parent="WIyWlLk6GJQsqaUBKTNV-1" vertex="1">
          <mxGeometry x="170" y="310" width="100" height="80" as="geometry" />
        </mxCell>
        <mxCell id="0eYCjOLJQi8AJZjNb86l-5" style="edgeStyle=orthogonalEdgeStyle;rounded=0;orthogonalLoop=1;jettySize=auto;html=1;exitX=0.5;exitY=1;exitDx=0;exitDy=0;entryX=0.5;entryY=0;entryDx=0;entryDy=0;" edge="1" parent="WIyWlLk6GJQsqaUBKTNV-1" source="0eYCjOLJQi8AJZjNb86l-3" target="0eYCjOLJQi8AJZjNb86l-4">
          <mxGeometry relative="1" as="geometry" />
        </mxCell>
        <mxCell id="0eYCjOLJQi8AJZjNb86l-27" style="edgeStyle=orthogonalEdgeStyle;rounded=0;orthogonalLoop=1;jettySize=auto;html=1;exitX=1;exitY=0.5;exitDx=0;exitDy=0;entryX=0;entryY=0.5;entryDx=0;entryDy=0;" edge="1" parent="WIyWlLk6GJQsqaUBKTNV-1" source="0eYCjOLJQi8AJZjNb86l-3" target="0eYCjOLJQi8AJZjNb86l-23">
          <mxGeometry relative="1" as="geometry" />
        </mxCell>
        <mxCell id="0eYCjOLJQi8AJZjNb86l-3" value="사육환경" style="rhombus;whiteSpace=wrap;html=1;" vertex="1" parent="WIyWlLk6GJQsqaUBKTNV-1">
          <mxGeometry x="170" y="425" width="100" height="80" as="geometry" />
        </mxCell>
        <mxCell id="0eYCjOLJQi8AJZjNb86l-7" style="edgeStyle=orthogonalEdgeStyle;rounded=0;orthogonalLoop=1;jettySize=auto;html=1;exitX=0.5;exitY=1;exitDx=0;exitDy=0;entryX=0.5;entryY=0;entryDx=0;entryDy=0;" edge="1" parent="WIyWlLk6GJQsqaUBKTNV-1" source="0eYCjOLJQi8AJZjNb86l-4" target="0eYCjOLJQi8AJZjNb86l-6">
          <mxGeometry relative="1" as="geometry" />
        </mxCell>
        <mxCell id="0eYCjOLJQi8AJZjNb86l-38" style="edgeStyle=orthogonalEdgeStyle;rounded=0;orthogonalLoop=1;jettySize=auto;html=1;exitX=1;exitY=0.5;exitDx=0;exitDy=0;entryX=0;entryY=0.5;entryDx=0;entryDy=0;" edge="1" parent="WIyWlLk6GJQsqaUBKTNV-1" source="0eYCjOLJQi8AJZjNb86l-4" target="0eYCjOLJQi8AJZjNb86l-24">
          <mxGeometry relative="1" as="geometry" />
        </mxCell>
        <mxCell id="0eYCjOLJQi8AJZjNb86l-4" value="검색기능" style="rhombus;whiteSpace=wrap;html=1;" vertex="1" parent="WIyWlLk6GJQsqaUBKTNV-1">
          <mxGeometry x="170" y="530" width="100" height="80" as="geometry" />
        </mxCell>
        <mxCell id="0eYCjOLJQi8AJZjNb86l-6" value="프로그램 종료" style="rounded=0;whiteSpace=wrap;html=1;" vertex="1" parent="WIyWlLk6GJQsqaUBKTNV-1">
          <mxGeometry x="165" y="670" width="110" height="40" as="geometry" />
        </mxCell>
        <mxCell id="0eYCjOLJQi8AJZjNb86l-17" style="edgeStyle=orthogonalEdgeStyle;rounded=0;orthogonalLoop=1;jettySize=auto;html=1;exitX=1;exitY=0.5;exitDx=0;exitDy=0;entryX=0;entryY=0.5;entryDx=0;entryDy=0;" edge="1" parent="WIyWlLk6GJQsqaUBKTNV-1" source="0eYCjOLJQi8AJZjNb86l-8" target="0eYCjOLJQi8AJZjNb86l-9">
          <mxGeometry relative="1" as="geometry" />
        </mxCell>
        <mxCell id="0eYCjOLJQi8AJZjNb86l-18" style="edgeStyle=orthogonalEdgeStyle;rounded=0;orthogonalLoop=1;jettySize=auto;html=1;exitX=1;exitY=0.5;exitDx=0;exitDy=0;entryX=0;entryY=0.5;entryDx=0;entryDy=0;" edge="1" parent="WIyWlLk6GJQsqaUBKTNV-1" source="0eYCjOLJQi8AJZjNb86l-8" target="0eYCjOLJQi8AJZjNb86l-12">
          <mxGeometry relative="1" as="geometry">
            <mxPoint x="520" y="220" as="targetPoint" />
          </mxGeometry>
        </mxCell>
        <mxCell id="0eYCjOLJQi8AJZjNb86l-52" style="edgeStyle=orthogonalEdgeStyle;rounded=0;orthogonalLoop=1;jettySize=auto;html=1;exitX=1;exitY=0.5;exitDx=0;exitDy=0;entryX=0;entryY=0.5;entryDx=0;entryDy=0;" edge="1" parent="WIyWlLk6GJQsqaUBKTNV-1" source="0eYCjOLJQi8AJZjNb86l-8" target="0eYCjOLJQi8AJZjNb86l-49">
          <mxGeometry relative="1" as="geometry" />
        </mxCell>
        <mxCell id="0eYCjOLJQi8AJZjNb86l-53" style="edgeStyle=orthogonalEdgeStyle;rounded=0;orthogonalLoop=1;jettySize=auto;html=1;exitX=1;exitY=0.5;exitDx=0;exitDy=0;entryX=0;entryY=0.5;entryDx=0;entryDy=0;" edge="1" parent="WIyWlLk6GJQsqaUBKTNV-1" source="0eYCjOLJQi8AJZjNb86l-8" target="0eYCjOLJQi8AJZjNb86l-51">
          <mxGeometry relative="1" as="geometry" />
        </mxCell>
        <mxCell id="0eYCjOLJQi8AJZjNb86l-8" value="동물원이 보유하고 있는 동물 종&amp;nbsp;" style="rounded=1;whiteSpace=wrap;html=1;" vertex="1" parent="WIyWlLk6GJQsqaUBKTNV-1">
          <mxGeometry x="330" y="90" width="140" height="30" as="geometry" />
        </mxCell>
        <mxCell id="0eYCjOLJQi8AJZjNb86l-9" value="포유류/조류/파충류/양서류의 수 입력&amp;nbsp;" style="rounded=1;whiteSpace=wrap;html=1;" vertex="1" parent="WIyWlLk6GJQsqaUBKTNV-1">
          <mxGeometry x="540" y="40" width="220" height="30" as="geometry" />
        </mxCell>
        <mxCell id="0eYCjOLJQi8AJZjNb86l-20" style="edgeStyle=orthogonalEdgeStyle;rounded=0;orthogonalLoop=1;jettySize=auto;html=1;exitX=1;exitY=0.5;exitDx=0;exitDy=0;entryX=0;entryY=0.5;entryDx=0;entryDy=0;" edge="1" parent="WIyWlLk6GJQsqaUBKTNV-1" source="0eYCjOLJQi8AJZjNb86l-10" target="0eYCjOLJQi8AJZjNb86l-11">
          <mxGeometry relative="1" as="geometry" />
        </mxCell>
        <mxCell id="0eYCjOLJQi8AJZjNb86l-21" style="edgeStyle=orthogonalEdgeStyle;rounded=0;orthogonalLoop=1;jettySize=auto;html=1;exitX=1;exitY=0.5;exitDx=0;exitDy=0;entryX=0;entryY=0.5;entryDx=0;entryDy=0;" edge="1" parent="WIyWlLk6GJQsqaUBKTNV-1" source="0eYCjOLJQi8AJZjNb86l-10" target="0eYCjOLJQi8AJZjNb86l-19">
          <mxGeometry relative="1" as="geometry" />
        </mxCell>
        <mxCell id="0eYCjOLJQi8AJZjNb86l-10" value="멸종 위기 관리 동물 수&amp;nbsp;" style="rounded=1;whiteSpace=wrap;html=1;" vertex="1" parent="WIyWlLk6GJQsqaUBKTNV-1">
          <mxGeometry x="330" y="250" width="140" height="30" as="geometry" />
        </mxCell>
        <mxCell id="0eYCjOLJQi8AJZjNb86l-11" value="멸종 위기 관리 동물 수 입력" style="rounded=1;whiteSpace=wrap;html=1;" vertex="1" parent="WIyWlLk6GJQsqaUBKTNV-1">
          <mxGeometry x="540" y="230" width="180" height="30" as="geometry" />
        </mxCell>
        <mxCell id="0eYCjOLJQi8AJZjNb86l-12" value="&lt;span style=&quot;&quot;&gt;포유류/조류/파충류/양서류의 수 삭제&amp;nbsp;&lt;/span&gt;" style="rounded=1;whiteSpace=wrap;html=1;" vertex="1" parent="WIyWlLk6GJQsqaUBKTNV-1">
          <mxGeometry x="540" y="85" width="220" height="30" as="geometry" />
        </mxCell>
        <mxCell id="0eYCjOLJQi8AJZjNb86l-19" value="멸종 위기 관리 동물 삭제" style="rounded=1;whiteSpace=wrap;html=1;" vertex="1" parent="WIyWlLk6GJQsqaUBKTNV-1">
          <mxGeometry x="540" y="270" width="180" height="30" as="geometry" />
        </mxCell>
        <mxCell id="0eYCjOLJQi8AJZjNb86l-32" style="edgeStyle=orthogonalEdgeStyle;rounded=0;orthogonalLoop=1;jettySize=auto;html=1;exitX=1;exitY=0.5;exitDx=0;exitDy=0;entryX=0;entryY=0.5;entryDx=0;entryDy=0;" edge="1" parent="WIyWlLk6GJQsqaUBKTNV-1" source="0eYCjOLJQi8AJZjNb86l-22" target="0eYCjOLJQi8AJZjNb86l-28">
          <mxGeometry relative="1" as="geometry" />
        </mxCell>
        <mxCell id="0eYCjOLJQi8AJZjNb86l-33" style="edgeStyle=orthogonalEdgeStyle;rounded=0;orthogonalLoop=1;jettySize=auto;html=1;exitX=1;exitY=0.5;exitDx=0;exitDy=0;" edge="1" parent="WIyWlLk6GJQsqaUBKTNV-1" source="0eYCjOLJQi8AJZjNb86l-22" target="0eYCjOLJQi8AJZjNb86l-31">
          <mxGeometry relative="1" as="geometry" />
        </mxCell>
        <mxCell id="0eYCjOLJQi8AJZjNb86l-22" value="추가 할 종에 대해 검색" style="rounded=0;whiteSpace=wrap;html=1;" vertex="1" parent="WIyWlLk6GJQsqaUBKTNV-1">
          <mxGeometry x="320" y="335" width="160" height="30" as="geometry" />
        </mxCell>
        <mxCell id="0eYCjOLJQi8AJZjNb86l-35" style="edgeStyle=orthogonalEdgeStyle;rounded=0;orthogonalLoop=1;jettySize=auto;html=1;exitX=1;exitY=0.5;exitDx=0;exitDy=0;entryX=0;entryY=0.5;entryDx=0;entryDy=0;" edge="1" parent="WIyWlLk6GJQsqaUBKTNV-1" source="0eYCjOLJQi8AJZjNb86l-23" target="0eYCjOLJQi8AJZjNb86l-34">
          <mxGeometry relative="1" as="geometry" />
        </mxCell>
        <mxCell id="0eYCjOLJQi8AJZjNb86l-37" style="edgeStyle=orthogonalEdgeStyle;rounded=0;orthogonalLoop=1;jettySize=auto;html=1;exitX=1;exitY=0.5;exitDx=0;exitDy=0;entryX=0;entryY=0.5;entryDx=0;entryDy=0;" edge="1" parent="WIyWlLk6GJQsqaUBKTNV-1" source="0eYCjOLJQi8AJZjNb86l-23" target="0eYCjOLJQi8AJZjNb86l-36">
          <mxGeometry relative="1" as="geometry" />
        </mxCell>
        <mxCell id="0eYCjOLJQi8AJZjNb86l-23" value="추가 할 종에 대해 검색" style="rounded=0;whiteSpace=wrap;html=1;" vertex="1" parent="WIyWlLk6GJQsqaUBKTNV-1">
          <mxGeometry x="320" y="450" width="160" height="30" as="geometry" />
        </mxCell>
        <mxCell id="0eYCjOLJQi8AJZjNb86l-43" style="edgeStyle=orthogonalEdgeStyle;rounded=0;orthogonalLoop=1;jettySize=auto;html=1;exitX=1;exitY=0.5;exitDx=0;exitDy=0;entryX=0;entryY=0.5;entryDx=0;entryDy=0;" edge="1" parent="WIyWlLk6GJQsqaUBKTNV-1" source="0eYCjOLJQi8AJZjNb86l-24" target="0eYCjOLJQi8AJZjNb86l-39">
          <mxGeometry relative="1" as="geometry" />
        </mxCell>
        <mxCell id="0eYCjOLJQi8AJZjNb86l-44" style="edgeStyle=orthogonalEdgeStyle;rounded=0;orthogonalLoop=1;jettySize=auto;html=1;exitX=1;exitY=0.5;exitDx=0;exitDy=0;entryX=0;entryY=0.5;entryDx=0;entryDy=0;" edge="1" parent="WIyWlLk6GJQsqaUBKTNV-1" source="0eYCjOLJQi8AJZjNb86l-24" target="0eYCjOLJQi8AJZjNb86l-40">
          <mxGeometry relative="1" as="geometry" />
        </mxCell>
        <mxCell id="0eYCjOLJQi8AJZjNb86l-45" style="edgeStyle=orthogonalEdgeStyle;rounded=0;orthogonalLoop=1;jettySize=auto;html=1;exitX=1;exitY=0.5;exitDx=0;exitDy=0;entryX=0;entryY=0.5;entryDx=0;entryDy=0;" edge="1" parent="WIyWlLk6GJQsqaUBKTNV-1" source="0eYCjOLJQi8AJZjNb86l-24" target="0eYCjOLJQi8AJZjNb86l-41">
          <mxGeometry relative="1" as="geometry" />
        </mxCell>
        <mxCell id="0eYCjOLJQi8AJZjNb86l-46" style="edgeStyle=orthogonalEdgeStyle;rounded=0;orthogonalLoop=1;jettySize=auto;html=1;exitX=1;exitY=0.5;exitDx=0;exitDy=0;entryX=0;entryY=0.5;entryDx=0;entryDy=0;" edge="1" parent="WIyWlLk6GJQsqaUBKTNV-1" source="0eYCjOLJQi8AJZjNb86l-24" target="0eYCjOLJQi8AJZjNb86l-42">
          <mxGeometry relative="1" as="geometry" />
        </mxCell>
        <mxCell id="0eYCjOLJQi8AJZjNb86l-24" value="원하는 서비스 선택" style="rounded=0;whiteSpace=wrap;html=1;" vertex="1" parent="WIyWlLk6GJQsqaUBKTNV-1">
          <mxGeometry x="320" y="555" width="160" height="30" as="geometry" />
        </mxCell>
        <mxCell id="0eYCjOLJQi8AJZjNb86l-28" value="해당하는 종에 대한 정보 입력" style="rounded=1;whiteSpace=wrap;html=1;" vertex="1" parent="WIyWlLk6GJQsqaUBKTNV-1">
          <mxGeometry x="530" y="320" width="220" height="30" as="geometry" />
        </mxCell>
        <mxCell id="0eYCjOLJQi8AJZjNb86l-31" value="해당하는 종에 대한 정보 삭제" style="rounded=1;whiteSpace=wrap;html=1;" vertex="1" parent="WIyWlLk6GJQsqaUBKTNV-1">
          <mxGeometry x="530" y="365" width="220" height="30" as="geometry" />
        </mxCell>
        <mxCell id="0eYCjOLJQi8AJZjNb86l-34" value="해당하는 종에 대한 사육환경 입력" style="rounded=1;whiteSpace=wrap;html=1;" vertex="1" parent="WIyWlLk6GJQsqaUBKTNV-1">
          <mxGeometry x="530" y="425" width="220" height="30" as="geometry" />
        </mxCell>
        <mxCell id="0eYCjOLJQi8AJZjNb86l-36" value="해당하는 종에 대한 사육환경 삭제" style="rounded=1;whiteSpace=wrap;html=1;" vertex="1" parent="WIyWlLk6GJQsqaUBKTNV-1">
          <mxGeometry x="530" y="475" width="220" height="30" as="geometry" />
        </mxCell>
        <mxCell id="0eYCjOLJQi8AJZjNb86l-39" value="포유류/조류/파충류/양서류의 수 출력" style="rounded=1;whiteSpace=wrap;html=1;" vertex="1" parent="WIyWlLk6GJQsqaUBKTNV-1">
          <mxGeometry x="560" y="530" width="220" height="30" as="geometry" />
        </mxCell>
        <mxCell id="0eYCjOLJQi8AJZjNb86l-40" value="멸종 위기 관리 동물 수 출력" style="rounded=1;whiteSpace=wrap;html=1;" vertex="1" parent="WIyWlLk6GJQsqaUBKTNV-1">
          <mxGeometry x="560" y="580" width="180" height="30" as="geometry" />
        </mxCell>
        <mxCell id="0eYCjOLJQi8AJZjNb86l-41" value="동물 세부 정보 출력" style="rounded=1;whiteSpace=wrap;html=1;" vertex="1" parent="WIyWlLk6GJQsqaUBKTNV-1">
          <mxGeometry x="560" y="630" width="180" height="30" as="geometry" />
        </mxCell>
        <mxCell id="0eYCjOLJQi8AJZjNb86l-42" value="사육환경 출력" style="rounded=1;whiteSpace=wrap;html=1;" vertex="1" parent="WIyWlLk6GJQsqaUBKTNV-1">
          <mxGeometry x="560" y="680" width="180" height="30" as="geometry" />
        </mxCell>
        <mxCell id="0eYCjOLJQi8AJZjNb86l-47" style="edgeStyle=orthogonalEdgeStyle;rounded=0;orthogonalLoop=1;jettySize=auto;html=1;exitX=0.5;exitY=1;exitDx=0;exitDy=0;" edge="1" parent="WIyWlLk6GJQsqaUBKTNV-1" source="0eYCjOLJQi8AJZjNb86l-41" target="0eYCjOLJQi8AJZjNb86l-41">
          <mxGeometry relative="1" as="geometry" />
        </mxCell>
        <mxCell id="0eYCjOLJQi8AJZjNb86l-49" value="동물원 내의 위치 입력" style="rounded=1;whiteSpace=wrap;html=1;" vertex="1" parent="WIyWlLk6GJQsqaUBKTNV-1">
          <mxGeometry x="540" y="130" width="170" height="30" as="geometry" />
        </mxCell>
        <mxCell id="0eYCjOLJQi8AJZjNb86l-51" value="동물원 내의 위치 삭제" style="rounded=1;whiteSpace=wrap;html=1;" vertex="1" parent="WIyWlLk6GJQsqaUBKTNV-1">
          <mxGeometry x="540" y="170" width="170" height="30" as="geometry" />
        </mxCell>
      </root>
    </mxGraphModel>
  </diagram>
</mxfile>
